<?xml version="1.0" standalone="no"?><svg xmlns="http://www.w3.org/2000/svg" viewBox="0 0 1440 320"><path fill="#ff6d4c" fill-opacity="1" d="M0,192L30,165.3C60,139,120,85,180,74.7C240,64,300,96,360,117.3C420,139,480,149,540,149.3C600,149,660,139,720,122.7C780,107,840,85,900,96C960,107,1020,149,1080,165.3C1140,181,1200,171,1260,160C1320,149,1380,139,1410,133.3L1440,128L1440,0L1410,0C1380,0,1320,0,1260,0C1200,0,1140,0,1080,0C1020,0,960,0,900,0C840,0,780,0,720,0C660,0,600,0,540,0C480,0,420,0,360,0C300,0,240,0,180,0C120,0,60,0,30,0L0,0Z"></path></svg>